# xmcd
#
# Track frame offsets: 
#        150
#        13868
#        32037
#        46796
#        65880
#        87070
#        90211
#        102365
#        132728
#        156341
#
# Disc length: 2440 seconds
#
# Revision: 0
# Processed by: cddbd v1.5.2PL0 Copyright (c) Steve Scherf et al.
# Submitted via: ExactAudioCopy v0.95b4
#
DISCID=7e09860a
DTITLE=The White Stripes - 2007-07-05-Molson Amphitheatre-Toronto(Disc
DTITLE=2)
DYEAR=2007
DGENRE=Blues
TTITLE0=Black Math
TTITLE1=In The Cold, Cold Night
TTITLE2=We're Going To Be Friends
TTITLE3=My Doorbell
TTITLE4=The Union Forever
TTITLE5=How Are Ya Doing, OK
TTITLE6=Fell In Love With a Girl
TTITLE7=Ball and Biscuit
TTITLE8=Seven Nation Army
TTITLE9=Boll Weevil
EXTD=
EXTT0=
EXTT1=
EXTT2=
EXTT3=
EXTT4=
EXTT5=
EXTT6=
EXTT7=
EXTT8=
EXTT9=
PLAYORDER=
